<svg class="eastendFooterLinkColumns_svgIcon" xmlns="http://www.w3.org/2000/svg" width="24" height="24" viewBox="0 0 24 24">
                                          <path class="eastendFooterLinkColumns_svgIconFill-light" d="M9.83652345,17.9961822 C9.3919824,19.723605 7.82412481,21 5.958194,21 C4.09226318,21 2.52440559,19.723605 2.07986455,17.9961822 L1,17.9961822 L1,4 L15.9694148,4 L15.9694148,6.00193404 C18.6390737,5.98791883 19.9739032,5.98091123 19.9739032,5.98091123 C19.9739032,5.98091123 20.9750253,7.64969887 22.9772694,10.9872742 L23,18.0240497 L21.8455118,18.013418 C21.3950059,19.7320885 19.8313785,21 17.971659,21 C16.1057282,21 14.5378706,19.723605 14.0933296,17.9961822 L9.83652345,17.9961822 Z M14.9682928,7.9834564 L14.9682928,11.9885467 L20.9750253,11.9885467 L20.9750253,10.9872742 L18.9727811,7.9834564 L14.9682928,7.9834564 Z M5.958194,18.9974548 C7.06400292,18.9974548 7.96043817,18.1008848 7.96043817,16.9949097 C7.96043817,15.8889345 7.06400292,14.9923645 5.958194,14.9923645 C4.85238508,14.9923645 3.95594983,15.8889345 3.95594983,16.9949097 C3.95594983,18.1008848 4.85238508,18.9974548 5.958194,18.9974548 Z M17.971659,18.9974548 C19.0774679,18.9974548 19.9739032,18.1008848 19.9739032,16.9949097 C19.9739032,15.8889345 19.0774679,14.9923645 17.971659,14.9923645 C16.8658501,14.9923645 15.9694148,15.8889345 15.9694148,16.9949097 C15.9694148,18.1008848 16.8658501,18.9974548 17.971659,18.9974548 Z"></path>
                                        </svg>