<svg role="img" width="60" height="40" viewBox="0 0 60 40" fill="none" xmlns="http://www.w3.org/2000/svg">
                <title>Alipay</title>
                <rect x="0.5" y="0.5" width="59" height="39" rx="3.5" fill="white" stroke="#DDDDDD"></rect>
                <path d="M25.1919 27.3053C25.1919 27.8992 25.6258 28.2988 26.231 28.2988C26.8361 28.2988 27.2703 27.8992 27.2703 27.3053C27.2703 26.7229 26.8361 26.3117 26.231 26.3117C25.6258 26.3117 25.1919 26.7229 25.1919 27.3053Z" fill="#1677FF"></path>
                <path d="M22.291 34.8996H24.0954V26.5629H22.291V34.8996Z" fill="black"></path>
                <path d="M16.5011 32.0104L17.5746 28.2989H17.6202L18.6366 32.0104H16.5011ZM19.1278 26.8485H16.7067L14 34.8998H15.6674L16.1242 33.3237H18.9907L19.4246 34.8998H21.56L19.1278 26.8485Z" fill="black"></path>
                <path d="M25.3289 34.8996H27.133V28.7784H25.3289V34.8996Z" fill="black"></path>
                <path d="M45.9887 28.7899L46 28.7785H44.2985L43.225 32.5014H43.1678L41.9345 28.7785H39.9131L42.3456 34.9225L41.3292 36.7954V36.841H42.9164L45.9887 28.7899Z" fill="black"></path>
                <path d="M30.4797 33.8491C30.2741 33.8491 30.0801 33.8262 29.863 33.7577V30.4458C30.2399 30.1831 30.5483 30.0576 30.9365 30.0576C31.6101 30.0576 32.1472 30.5942 32.1472 31.7363C32.1472 33.1981 31.359 33.8491 30.4797 33.8491ZM31.6216 28.6528C30.9592 28.6528 30.4455 28.9041 29.863 29.3838V28.7785H28.0586V36.841H29.863V34.8426C30.2055 34.934 30.5254 34.9795 30.9138 34.9795C32.524 34.9795 33.9741 33.7919 33.9741 31.6793C33.9741 29.7835 32.9236 28.6528 31.6216 28.6528Z" fill="black"></path>
                <path d="M37.7547 33.415C37.2751 33.6777 37.001 33.7805 36.6811 33.7805C36.2473 33.7805 35.9731 33.4951 35.9731 33.0381C35.9731 32.8668 36.0073 32.6956 36.1445 32.5585C36.3615 32.3415 36.784 32.1816 37.7547 31.9533V33.415ZM39.5588 33.3693V30.8113C39.5588 29.4179 38.7367 28.6529 37.2866 28.6529C36.3615 28.6529 35.7218 28.8127 34.5572 29.1667L34.8768 30.5714C35.9386 30.0918 36.4072 29.8862 36.898 29.8862C37.4918 29.8862 37.7547 30.3087 37.7547 30.9596V31.0054C35.6877 31.3937 35.0479 31.6107 34.6485 32.0104C34.3515 32.3072 34.2257 32.7298 34.2257 33.2209C34.2257 34.3971 35.1395 35.0252 35.996 35.0252C36.6356 35.0252 37.1495 34.7855 37.846 34.2601L37.9717 34.8997H39.7758L39.5588 33.3693Z" fill="black"></path>
                <path d="M36.8487 3H22.891C21.073 3 19.6012 4.48515 19.6012 6.31811V20.3939C19.6012 22.2258 21.073 23.7114 22.891 23.7114H36.8487C38.6658 23.7114 40.1372 22.2258 40.1372 20.3939V6.31811C40.1372 4.48515 38.6658 3 36.8487 3Z" fill="#1677FF"></path>
                <path d="M25.1504 18.9271C21.9554 18.9271 21.0108 16.389 22.5897 15.0005C23.1165 14.5313 24.0796 14.3022 24.5927 14.2508C26.4904 14.0616 28.2474 14.7918 30.3206 15.8124C28.8632 17.7294 27.0073 18.9271 25.1504 18.9271ZM36.5089 16.0047C35.6876 15.7273 34.5846 15.3029 33.3567 14.8546C34.0945 13.5615 34.6832 12.0887 35.0704 10.4885H31.0228V9.01802H35.9814V8.19733H31.0228V5.74595H28.9988C28.6436 5.74595 28.6436 6.09926 28.6436 6.09926V8.19733H23.6286V9.01802H28.6436V10.4885H24.5032V11.3092H32.5339C32.2397 12.3302 31.8454 13.289 31.377 14.1599C28.7713 13.2927 25.9905 12.5899 24.2438 13.0226C23.1269 13.3001 22.407 13.7957 21.9843 14.3146C20.0441 16.6953 21.4353 20.3115 25.533 20.3115C27.9557 20.3115 30.2894 18.949 32.0982 16.7043C34.7957 18.0122 40.1371 20.2579 40.1371 20.2579V17.0574C40.1371 17.0574 39.4665 17.0035 36.5089 16.0047Z" fill="white"></path>
                </svg>