<svg role="img" width="60" height="40" viewBox="0 0 60 40" fill="none" xmlns="http://www.w3.org/2000/svg">
                <title>WeChat Pay</title>
                <rect x="0.5" y="0.5" width="59" height="39" rx="3.5" fill="white" stroke="#DDDDDD"></rect>
                <path d="M30.2021 30.6405H25.9292V31.0237H30.2021V30.6405Z" fill="#494949"></path>
                <path d="M30.2021 31.8376H25.9292V32.2506H30.2021V31.8376Z" fill="#494949"></path>
                <path d="M26.4507 33.4474H29.6809V34.9936H26.4507V33.4474ZM30.0941 33.0643H26.0376V35.3771H30.0941V33.0643Z" fill="#494949"></path>
                <path d="M24.7564 35.6172V30.2961C24.9986 29.7741 25.2131 29.2114 25.3884 28.6418L25.0061 28.4209C24.6289 29.7498 24.0761 30.9579 23.3823 31.9691L23.6102 32.3607C23.8507 32.0051 24.1045 31.587 24.3434 31.1487V35.6172H24.7564Z" fill="#494949"></path>
                <path d="M40.2817 35.6172V30.2961C40.5239 29.7741 40.7384 29.2114 40.9137 28.6418L40.5314 28.4209C40.1542 29.7498 39.6014 30.9579 38.9076 31.9691L39.1355 32.3607C39.376 32.0051 39.6298 31.587 39.8687 31.1487V35.6172H40.2817Z" fill="#494949"></path>
                <path d="M30.6511 29.4135H28.1407L28.4069 29.2604L28.4163 29.2549L28.4121 29.2452C28.3813 29.1738 28.3014 29.006 28.2167 28.8285C28.1379 28.6631 28.0563 28.4922 28.0175 28.4047L28.0121 28.3924L27.6315 28.612L27.6369 28.6223C27.7731 28.8789 27.8902 29.1138 27.9951 29.3411C28.0101 29.372 28.0194 29.3962 28.0225 29.4135H25.5104V29.8267H30.6511V29.4135Z" fill="#494949"></path>
                <path d="M19.6249 29.1001H19.2417V30.4468H18.5179V28.5316H18.1346V30.4468H17.3808V29.1001H16.9977V30.8301H19.6249V29.1001Z" fill="#494949"></path>
                <path d="M19.4454 31.5837H17.1173V31.967H19.4454V31.5837Z" fill="#494949"></path>
                <path d="M17.6202 33.4512V33.1042H18.793V33.9592C18.7784 34.2575 18.7635 34.3486 18.6612 34.491L18.6567 34.4974L18.8919 34.9051L18.9028 34.8964C19.1091 34.7309 19.461 34.4293 19.9489 33.9999L19.9563 33.9934L19.7715 33.6732L19.7641 33.6607L19.1762 34.1649V32.721H17.2072V33.3026C17.2629 34.0989 17.0642 34.6684 16.6165 34.9951L16.6077 35.0014L16.8208 35.3713L16.8281 35.3835L16.839 35.3744C17.3971 34.915 17.66 34.2677 17.6202 33.4512Z" fill="#494949"></path>
                <path d="M15.1047 30.3421L15.3361 30.7429C15.9304 30.1473 16.4387 29.4325 16.8153 28.6593L16.4577 28.4527C16.0887 29.2064 15.6251 29.854 15.1047 30.3421Z" fill="#494949"></path>
                <path d="M15 32.7493L15.2124 33.1173L15.2211 33.1321L15.232 33.1191C15.4581 32.8548 15.6797 32.5763 15.8905 32.2905V35.6172H16.2738V31.6585C16.447 31.3502 16.6145 31.0056 16.772 30.6344L16.7761 30.6245L16.4053 30.4114L16.4002 30.4242C16.0458 31.3101 15.5765 32.0903 15.0057 32.7428L15 32.7493Z" fill="#494949"></path>
                <path d="M21.0182 33.21C20.766 32.559 20.5787 31.6742 20.4611 30.5792C20.4995 30.4642 20.5484 30.3471 20.606 30.2309H21.6331C21.5537 31.4801 21.3469 32.4822 21.0182 33.21ZM22.4358 30.2309V29.8477H20.7349L20.735 29.8476C20.8826 29.4029 21.0515 28.8852 21.1085 28.4419L20.7085 28.4412C20.4599 29.6072 20.0801 30.619 19.5912 31.4176L19.833 31.8367L20.0105 31.4816C20.0773 31.3647 20.1315 31.2659 20.1722 31.1873C20.292 32.2202 20.5012 33.0518 20.7944 33.6593C20.513 34.1456 20.0801 34.6509 19.5075 35.1614L19.5001 35.168L19.7209 35.5505L19.7286 35.5635L19.7398 35.5532C20.3461 34.9851 20.7659 34.4875 20.9879 34.074C21.2408 34.5245 21.6691 35.0703 22.1662 35.575L22.1773 35.5864L22.4041 35.1936L22.409 35.1854L22.402 35.1789C21.8688 34.6694 21.4459 34.1408 21.2106 33.6899C21.6451 32.8963 21.9162 31.7325 22.0161 30.2309H22.4358Z" fill="#494949"></path>
                <path d="M36.7633 31.5444C36.7633 31.5444 36.3426 32.7496 34.9004 33.7782C34.2135 33.2551 33.5052 32.4873 33.0513 31.5444H36.7633ZM38.4192 29.8247V29.4163H35.1538V28.38H34.7358V29.4163H31.4994V29.8247H34.7358V31.1857H34.669H32.6371L32.6374 31.5594C32.6374 31.5594 32.9598 32.2865 33.6115 33.0743C33.8731 33.3905 34.1832 33.7214 34.5796 34.0464C33.8431 34.4995 32.9231 34.9291 31.6464 35.1774L31.8875 35.5953C31.8875 35.5953 33.4021 35.2724 34.9079 34.2972C35.1113 34.4261 36.0409 35.1693 37.7814 35.5843C37.783 35.5847 37.7845 35.5851 37.7859 35.5854L37.7929 35.587L37.9624 35.2649C37.9624 35.2649 37.5134 35.1468 36.8328 34.8844C36.3603 34.7022 35.7675 34.4268 35.2016 34.0431C36.0451 33.4201 36.7978 32.5302 37.2507 31.382L36.9111 31.1857H35.1577H35.1538V29.8247H38.4192Z" fill="#494949"></path>
                <path d="M43.6649 35.0872C43.5804 35.0872 43.5018 35.0868 43.4258 35.0861V35.4991C43.5898 35.4991 43.7085 35.4977 43.7866 35.4977C44.1917 35.4977 44.4134 35.4112 44.5865 35.2381C44.7546 35.0696 44.8351 34.8123 44.8252 34.4737V30.6353H45.9353V30.223H44.8252V28.4526H44.4108V30.223H41.0024V30.6353H44.4108V34.4746C44.4108 34.8917 44.1521 35.0872 43.6649 35.0872Z" fill="#494949"></path>
                <path d="M42.7406 33.7204L43.1507 33.4811C42.9314 33.0339 42.6374 32.4405 42.2733 31.7118L41.8993 31.9303C42.151 32.4223 42.4328 33.0216 42.7406 33.7204Z" fill="#494949"></path>
                <path d="M27.4525 16.5729C27.3506 16.6243 27.236 16.6539 27.1141 16.6539C26.8325 16.6539 26.5874 16.4987 26.4588 16.2697L26.4095 16.1619L24.3572 11.6622C24.3349 11.6132 24.3211 11.5579 24.3211 11.5039C24.3211 11.2967 24.4892 11.1285 24.6971 11.1285C24.7813 11.1285 24.859 11.1562 24.9219 11.2032L27.3436 12.9258C27.5208 13.0416 27.732 13.1094 27.9594 13.1094C28.095 13.1094 28.2242 13.0842 28.3447 13.0403L39.7346 7.97541C37.693 5.57135 34.3307 4.00014 30.5258 4.00014C24.2993 4.00014 19.2522 8.20257 19.2522 13.3869C19.2522 16.2154 20.7709 18.7612 23.1474 20.482C23.3384 20.618 23.4631 20.8413 23.4631 21.0936C23.4631 21.177 23.4452 21.2536 23.4234 21.333C23.2337 22.0405 22.9297 23.1734 22.9154 23.2264C22.892 23.3152 22.8548 23.4079 22.8548 23.5008C22.8548 23.7082 23.0232 23.8762 23.2308 23.8762C23.3124 23.8762 23.3789 23.8461 23.4478 23.8064L25.9158 22.3826C26.1015 22.2757 26.298 22.2095 26.5144 22.2095C26.6298 22.2095 26.741 22.2271 26.846 22.2591C27.9973 22.5901 29.2394 22.7739 30.5258 22.7739C36.7519 22.7739 41.7992 18.5712 41.7992 13.3869C41.7992 11.8167 41.3339 10.3379 40.5154 9.03724L27.5348 16.5254L27.4525 16.5729Z" fill="#09BB07"></path>
                </svg>