<svg class="headerSearch_spyglass " width="24px" height="24px" viewBox="0 0 24 24" version="1.1" xmlns="http://www.w3.org/2000/svg" xmlns:xlink="http://www.w3.org/1999/xlink">
                <g stroke="none" stroke-width="1" fill-rule="evenodd">
                  <mask>
                    <path d="M9.6131566,15.698024 C12.9737361,15.698024 15.698024,12.9737361 15.698024,9.6131566 C15.698024,6.2525771 12.9737361,3.52828915 9.6131566,3.52828915 C6.2525771,3.52828915 3.52828915,6.2525771 3.52828915,9.6131566 C3.52828915,12.9737361 6.2525771,15.698024 9.6131566,15.698024 Z M9.6131566,17.7263132 C5.13238394,17.7263132 1.5,14.0939293 1.5,9.6131566 C1.5,5.13238394 5.13238394,1.5 9.6131566,1.5 C14.0939293,1.5 17.7263132,5.13238394 17.7263132,9.6131566 C17.7263132,14.0939293 14.0939293,17.7263132 9.6131566,17.7263132 Z M22.5,21.065783 L21.065783,22.5 L15.9950601,17.4292771 L17.4292771,15.9950601 L22.5,21.065783 Z"></path>
                  </mask>
                  <path class="headerSearch_spyglass_fillContainer" fill-rule="nonzero" d="M9.6131566,15.698024 C12.9737361,15.698024 15.698024,12.9737361 15.698024,9.6131566 C15.698024,6.2525771 12.9737361,3.52828915 9.6131566,3.52828915 C6.2525771,3.52828915 3.52828915,6.2525771 3.52828915,9.6131566 C3.52828915,12.9737361 6.2525771,15.698024 9.6131566,15.698024 Z M9.6131566,17.7263132 C5.13238394,17.7263132 1.5,14.0939293 1.5,9.6131566 C1.5,5.13238394 5.13238394,1.5 9.6131566,1.5 C14.0939293,1.5 17.7263132,5.13238394 17.7263132,9.6131566 C17.7263132,14.0939293 14.0939293,17.7263132 9.6131566,17.7263132 Z M22.5,21.065783 L21.065783,22.5 L15.9950601,17.4292771 L17.4292771,15.9950601 L22.5,21.065783 Z"></path>
                </g>
              </svg>