<svg width="60" height="40" viewBox="0 0 60 40" fill="none" xmlns="http://www.w3.org/2000/svg">
                <title>PayPal</title>
                <rect x="0.5" y="0.5" width="59" height="39" rx="3.5" fill="white" stroke="#DDDDDD"></rect>
                <path fill-rule="evenodd" clip-rule="evenodd" d="M39.1883 17.0476C38.9757 18.599 37.9094 18.599 36.8781 18.599H36.2914L36.703 15.7024C36.7278 15.5274 36.8636 15.3984 37.0232 15.3984H37.2922C37.994 15.3984 38.6572 15.3984 38.9991 15.8429C39.2036 16.1088 39.2655 16.5029 39.1883 17.0476ZM38.7394 13H34.85C34.5841 13 34.3577 13.215 34.3163 13.507L32.7437 24.5891C32.7126 24.8076 32.8646 25.0054 33.0639 25.0054H35.0594C35.2455 25.0054 35.4041 24.8548 35.4329 24.6505L35.879 21.5088C35.9204 21.2169 36.1468 21.0018 36.4127 21.0018H37.6434C40.2052 21.0018 41.6836 19.6241 42.0701 16.8936C42.244 15.6994 42.0771 14.761 41.5739 14.1041C41.0208 13.3819 40.0406 13 38.7394 13Z" fill="#0093C7"></path>
                <path fill-rule="evenodd" clip-rule="evenodd" d="M11.4486 17.0476C11.236 18.599 10.1698 18.599 9.13863 18.599H8.55184L8.96331 15.7024C8.98831 15.5274 9.12412 15.3984 9.28354 15.3984H9.55255C10.2545 15.3984 10.9177 15.3984 11.2594 15.8429C11.4641 16.1088 11.526 16.5029 11.4486 17.0476ZM10.9999 13H7.11048C6.84462 13 6.61825 13.215 6.57683 13.507L5.00401 24.5891C4.97307 24.8076 5.12514 25.0054 5.32424 25.0054H7.18127C7.44714 25.0054 7.67367 24.7903 7.7151 24.4986L8.13951 21.5088C8.18076 21.2169 8.40729 21.0018 8.67316 21.0018H9.9039C12.4655 21.0018 13.9441 19.6241 14.3306 16.8936C14.5045 15.6994 14.3376 14.761 13.8344 14.1041C13.2811 13.3819 12.3009 13 10.9999 13Z" fill="#213170"></path>
                <path fill-rule="evenodd" clip-rule="evenodd" d="M20.029 21.0258C19.8491 22.2084 19.0043 23.0023 17.9269 23.0023C17.3867 23.0023 16.9543 22.8092 16.6764 22.4436C16.4009 22.0812 16.2972 21.5649 16.3845 20.9899C16.5523 19.818 17.4105 18.9985 18.4715 18.9985C19.0005 18.9985 19.4298 19.1936 19.7133 19.5624C19.9986 19.934 20.1106 20.4538 20.029 21.0258ZM22.6244 16.9978H20.7621C20.6025 16.9978 20.4667 17.1266 20.4419 17.302L20.3599 17.8806L20.2296 17.6709C19.8264 17.0203 18.9276 16.803 18.03 16.803C15.9725 16.803 14.2149 18.5356 13.8728 20.9658C13.6947 22.1781 13.9475 23.3365 14.5661 24.1452C15.1343 24.8881 15.9454 25.1974 16.9117 25.1974C18.5701 25.1974 19.4899 24.0135 19.4899 24.0135L19.4067 24.5886C19.3756 24.8073 19.5277 25.0053 19.7269 25.0053H21.4041C21.67 25.0053 21.8963 24.7904 21.9378 24.4985L22.9446 17.4141C22.9757 17.1953 22.8236 16.9978 22.6244 16.9978Z" fill="#213170"></path>
                <path fill-rule="evenodd" clip-rule="evenodd" d="M47.7685 21.0258C47.5886 22.2084 46.744 23.0023 45.6665 23.0023C45.1262 23.0023 44.694 22.8092 44.4159 22.4436C44.1404 22.0812 44.0367 21.5649 44.1241 20.9899C44.2918 19.818 45.15 18.9985 46.2112 18.9985C46.74 18.9985 47.1694 19.1936 47.4528 19.5624C47.738 19.934 47.8501 20.4538 47.7685 21.0258ZM50.3638 16.9978H48.5016C48.342 16.9978 48.2061 17.1266 48.1813 17.302L48.0993 17.8806L47.9693 17.6709C47.5659 17.0203 46.6671 16.803 45.7695 16.803C43.7121 16.803 41.9544 18.5356 41.6123 20.9658C41.4344 22.1781 41.6871 23.3365 42.3055 24.1452C42.874 24.8881 43.6849 25.1974 44.6511 25.1974C46.3096 25.1974 47.2294 24.0135 47.2294 24.0135L47.1464 24.5886C47.1151 24.8073 47.2671 25.0053 47.4666 25.0053H49.1436C49.4094 25.0053 49.6358 24.7904 49.6774 24.4985L50.6841 17.4141C50.7152 17.1953 50.5631 16.9978 50.3638 16.9978Z" fill="#0093C7"></path>
                <path fill-rule="evenodd" clip-rule="evenodd" d="M32.5432 16.9978H30.6713C30.4923 16.9978 30.3249 17.0965 30.2244 17.261L27.6423 21.4871L26.5479 17.4261C26.4795 17.172 26.2691 16.9978 26.0303 16.9978H24.1902C23.968 16.9978 23.8116 17.2406 23.8833 17.4743L25.9445 24.1974L24.0058 27.2373C23.8536 27.4758 24.0072 27.8059 24.2703 27.8059H26.1404C26.3177 27.8059 26.4835 27.7093 26.5846 27.5473L32.8098 17.5634C32.9587 17.3245 32.8049 16.9978 32.5432 16.9978Z" fill="#213170"></path>
                <path fill-rule="evenodd" clip-rule="evenodd" d="M52.5589 13.3044L50.9627 24.5891C50.9317 24.8078 51.0838 25.0054 51.2829 25.0054H52.8884C53.1543 25.0054 53.3806 24.7903 53.4221 24.4986L54.9959 13.4165C55.0271 13.1977 54.875 13 54.6757 13H52.8792C52.7196 13 52.5837 13.1292 52.5589 13.3044Z" fill="#0093C7"></path>
                </svg>