<svg class="eastendFooterSocialIcons_listItemSvg" xmlns="http://www.w3.org/2000/svg" width="40" height="40" viewBox="0 0 40 40">
                      <circle class="eastendFooter_fill_hover" cx="20" cy="20" r="20"></circle>
                      <path class="eastendFooterSocialIcons_listItemSvgPath" fill="#FFF" fill-rule="nonzero" stroke="#000" d="M14.3430369,12.5616372 C13.7930369,13.8104867 14.0102869,16.0480088 14.0982869,17.6127876 C13.5042869,17.9463717 12.7416202,17.3609735 12.3098702,17.3609735 C11.8607036,17.3609735 11.3244536,17.660177 11.2401202,18.1061947 C11.1796202,18.4276991 11.3217036,18.8960177 12.3410369,19.3039381 C12.7352036,19.4619027 13.6729536,19.6477434 13.8902036,20.1662389 C14.1954536,20.8947345 12.3227036,24.2575221 9.3820369,24.7481416 C9.15195357,24.7862389 8.98787024,24.9943805 9.00070357,25.2303982 C9.0520369,26.1363717 11.0558702,26.4913274 11.9441202,26.630708 C12.0348702,26.7552212 12.1082036,27.2811504 12.2246202,27.6816372 C12.2768702,27.8609735 12.4116202,28.0756195 12.7581202,28.0756195 C13.2100369,28.0756195 13.9607869,27.7225221 15.2679536,27.9418142 C16.5494536,28.1583186 17.7539536,30 20.0667036,30 C22.2162869,30 23.4987036,28.1499558 24.7325369,27.9418142 C25.4466202,27.8219469 26.0598702,27.8600442 26.7455369,27.995708 C27.2176202,28.0895575 27.6411202,28.1415929 27.7758702,27.6714159 C27.8941202,27.265354 27.9665369,26.749646 28.0554536,26.6279204 C28.9354536,26.489469 30.9484536,26.1354425 30.9988702,25.229469 C31.0117036,24.9934513 30.8476202,24.7862389 30.6175369,24.7472124 C27.7263702,24.2640265 25.7967869,20.9114602 26.1093702,20.1653097 C26.3257036,19.6477434 27.2570369,19.4637611 27.6585369,19.3030088 C28.4047036,19.0047345 28.7787036,18.6376991 28.7704536,18.2130531 C28.7603702,17.669469 28.1150369,17.345177 27.6402036,17.345177 C27.1571202,17.345177 26.4632036,17.925 25.9012869,17.6109292 C25.9892869,16.0331416 26.2056202,13.8058407 25.6565369,12.5579204 C24.6161202,10.1949558 22.3015369,9 19.9878702,9 C17.6888702,9 15.3917036,10.1782301 14.3430369,12.5616372 Z"></path>
                    </svg>