<svg class="eastendFooterLinkColumns_svgIcon" xmlns="http://www.w3.org/2000/svg" width="24" height="24" viewBox="0 0 24 24">
                                          <path class="eastendFooterLinkColumns_svgIconFill-light" d="M12,2 C17.5228475,2 22,6.4771525 22,12 C22,14.4452017 21.1179427,16.7564187 19.5448599,18.5633646 L18.0364037,17.2501397 C19.2954713,15.8038921 20,13.9578458 20,12 C20,7.581722 16.418278,4 12,4 L12,6 L8,3 L12,-1.71807013e-13 L12,2 Z M12,22 C6.4771525,22 2,17.5228475 2,12 C2,9.55479826 2.88205727,7.24358127 4.45514006,5.43663535 L5.96359628,6.74986033 C4.70452866,8.19610785 4,10.0421542 4,12 C4,16.418278 7.581722,20 12,20 L12,18 L16,21 L12,24 L12,22 Z"></path>
                                        </svg>