<svg class="eastendFooterSocialIcons_listItemSvg" xmlns="http://www.w3.org/2000/svg" width="40" height="40" viewBox="0 0 40 40">
                      <g fill="none" fill-rule="evenodd">
                        <circle class="eastendFooter_fill_hover" cx="20" cy="20" r="20"></circle>
                        <path class="eastendFooterSocialIcons_listItemSvgPath" fill-rule="nonzero" d="M14.8826768,30.8902697 C14.7041358,28.9614609 14.7139674,27.5758582 14.9121715,26.7334614 C15.1681851,25.6470494 16.5650521,19.8116647 16.5650521,19.8116647 C16.5650521,19.8116647 16.1438684,18.9782048 16.1438684,17.7437517 C16.1438684,15.808726 17.2788228,14.3632851 18.6933866,14.3632851 C19.8967687,14.3632851 20.4772236,15.2550289 20.4772236,16.3239557 C20.4772236,17.5187758 19.7068231,19.3045947 19.3092351,20.9610233 C18.9777151,22.3470146 20.0135675,23.4777224 21.3962771,23.4777224 C23.9009635,23.4777224 25.8275546,20.8677691 25.8275546,17.1002973 C25.8275546,13.7652922 23.4019139,11.4351016 19.939241,11.4351016 C15.9303271,11.4351016 13.5766533,14.4064152 13.5766533,17.4779771 C13.5766533,18.6751285 14.0426689,19.9573744 14.6254834,20.6556157 C14.7265339,20.7628604 14.7636516,20.9144161 14.7234056,21.0554432 C14.6160451,21.4960696 14.3777283,22.4414345 14.3317166,22.6349371 C14.2691879,22.889055 14.1276136,22.9438418 13.8598021,22.8202799 C12.0995609,22.0112993 11,19.4689553 11,17.4266872 C11,13.0332463 14.2290752,9 20.3108737,9 C25.1999082,9 29,12.4422475 29,17.0420134 C29,21.8411103 25.9384545,25.7041676 21.6865046,25.7041676 C20.2577833,25.7041676 18.9163663,24.9697904 18.4562496,24.1036916 C18.4562496,24.1036916 17.7495576,26.7637691 17.5784886,27.4142175 C17.3566887,28.2566142 16.5145231,29.7852084 15.0519915,32 L14.8826768,30.8902697 Z"></path>
                      </g>
                    </svg>