<svg class="eastendFooterLinkColumns_svgIcon" xmlns="http://www.w3.org/2000/svg" width="24" height="24" viewBox="0 0 24 24"><path class="eastendFooterLinkColumns_svgIconFill-light" d="M12.132,21.787c-5.412,0-9.799-4.388-9.799-9.799c0-5.412,4.387-9.799,9.799-9.799s9.799,4.387,9.799,9.799  C21.932,17.399,17.544,21.787,12.132,21.787z M15.943,8.722c0.902,0,1.635-0.732,1.635-1.634c0-0.901-0.732-1.632-1.635-1.632  s-1.633,0.731-1.633,1.632C14.311,7.99,15.041,8.722,15.943,8.722z M18.121,16.341c0.901,0.023,1.65-0.689,1.673-1.592  c0.021-0.9-0.69-1.651-1.593-1.672c-0.026-0.001-0.053-0.001-0.08,0c-0.902,0.021-1.615,0.771-1.594,1.672  C16.55,15.62,17.25,16.321,18.121,16.341z M11.587,13.077c0.902,0.021,1.651-0.691,1.673-1.593c0.021-0.902-0.69-1.652-1.593-1.675  c-0.025,0-0.053,0-0.08,0c-0.902,0.022-1.614,0.772-1.593,1.675C10.017,12.354,10.717,13.056,11.587,13.077z M7.233,8.722  c0.902,0,1.634-0.732,1.634-1.634c0-0.901-0.732-1.632-1.634-1.632S5.6,6.187,5.6,7.088C5.6,7.99,6.331,8.722,7.233,8.722z   M7.233,17.434c0.902,0,1.634-0.732,1.634-1.633c0.001-0.904-0.73-1.635-1.632-1.635c-0.001,0-0.001,0-0.002,0  c-0.902,0-1.633,0.73-1.633,1.635C5.601,16.701,6.332,17.432,7.233,17.434z M12.679,19.608c0.9,0.001,1.634-0.729,1.634-1.632  s-0.73-1.634-1.633-1.636c-0.001,0-0.001,0-0.001,0c-0.903,0.002-1.634,0.733-1.634,1.636  C11.045,18.878,11.776,19.608,12.679,19.608z"></path> <rect x="2.166" y="2.12" fill="none" width="19.834" height="19.834"></rect> </svg>