<svg class="eastendFooterLinkColumns_svgIcon" xmlns="http://www.w3.org/2000/svg" width="24" height="24" viewBox="0 0 24 24">
                                          <path class="eastendFooterLinkColumns_svgIconFill-light" d="M6,7.43978349 C6.12053571,4.32746955 8.19642857,2 12.0803571,2 C15.6160714,2 18,4.12449256 18,7.0608931 C18,9.14479026 16.9553571,10.6197564 15.1875,11.6887686 C13.4598214,12.7171854 12.9642857,13.4343708 12.9642857,14.8010825 L12.9642857,15.6129905 L10.1919643,15.6129905 L10.1785714,14.5845737 C10.1116071,12.6359946 10.9285714,11.4181326 12.7633929,10.308525 C14.3839286,9.32070365 14.9598214,8.54939107 14.9598214,7.1826793 C14.9598214,5.69418133 13.7678571,4.61163735 11.9330357,4.61163735 C10.0848214,4.61163735 8.89285714,5.70771313 8.77232143,7.43978349 L6,7.43978349 Z M11.7455357,22 C10.5133929,22 9.66964286,21.1745602 9.66964286,19.9431664 C9.66964286,18.6847091 10.5133929,17.8592693 11.7455357,17.8592693 C12.9776786,17.8592693 13.8080357,18.6847091 13.8080357,19.9431664 C13.8080357,21.1745602 12.9776786,22 11.7455357,22 Z"></path>
                                        </svg>