<svg width="60" height="41" xmlns="http://www.w3.org/2000/svg" role="img">
                  <title>Mode</title>
                  <g>
                    <rect x=".5" y=".5" width="59" height="39" rx="4" fill="#FFF" stroke="#DDD"></rect>
                    <g fill="#2A2A2A">
                      <path d="m 27.32875,22.29072 c 0.59229,0 1.07244,-0.55801 1.07244,-1.2464 0,-0.68834 -0.48016,-1.24635 -1.07244,-1.24635 -0.59224,0 -1.07239,0.55801 -1.07239,1.24635 0,0.6884 0.48016,1.2464 1.07239,1.2464 z" fill="#ff2f4d"></path>
                      <path d="M 39.486328 12.552734 C 39.415978 12.552734 39.34627 12.570272 39.28125 12.601562 C 39.21628 12.632852 39.157142 12.678518 39.107422 12.736328 C 39.057662 12.794148 39.019118 12.86196 38.992188 12.9375 C 38.965307 13.01303 38.951172 13.094011 38.951172 13.175781 L 38.951172 17.443359 C 38.366312 16.575129 37.504319 16.064453 36.318359 16.064453 C 34.141569 16.064453 32.355469 18.235058 32.355469 21.048828 C 32.355469 23.862568 34.141569 26.033203 36.318359 26.033203 C 37.504319 26.033203 38.365332 25.52507 38.951172 24.65625 L 38.951172 25.146484 C 38.951172 25.311654 39.006912 25.471161 39.107422 25.587891 C 39.207872 25.704681 39.344248 25.769531 39.486328 25.769531 L 40.511719 25.769531 C 40.653799 25.769531 40.790115 25.704681 40.890625 25.587891 C 40.991085 25.471151 41.046875 25.311654 41.046875 25.146484 L 41.046875 13.175781 C 41.046875 13.010651 40.991085 12.853088 40.890625 12.736328 C 40.790125 12.619558 40.653799 12.552734 40.511719 12.552734 L 39.486328 12.552734 z M 14.384766 16.056641 C 13.315296 16.056641 12.5304 16.541742 12.0625 17.357422 L 12.0625 16.96875 C 12.0625 16.79893 12.005664 16.635705 11.902344 16.515625 C 11.799024 16.395535 11.657839 16.328125 11.511719 16.328125 L 10.458984 16.328125 C 10.312864 16.328125 10.173633 16.395535 10.070312 16.515625 C 9.9669925 16.635705 9.9082031 16.79893 9.9082031 16.96875 L 9.9082031 25.394531 C 9.9083331 25.564251 9.9670025 25.727726 10.070312 25.847656 C 10.173633 25.967636 10.312944 26.035156 10.458984 26.035156 L 11.511719 26.035156 C 11.657749 26.035156 11.797081 25.967646 11.900391 25.847656 C 12.003701 25.727726 12.06237 25.564251 12.0625 25.394531 L 12.0625 20.580078 C 12.0625 19.124088 12.714222 18.386719 13.632812 18.386719 C 14.534692 18.386719 15.037109 19.088029 15.037109 20.230469 L 15.037109 25.394531 C 15.037109 25.564371 15.093946 25.725603 15.197266 25.845703 C 15.300586 25.965753 15.441761 26.035156 15.587891 26.035156 L 16.640625 26.035156 C 16.786445 26.034856 16.926277 25.965633 17.029297 25.845703 C 17.132307 25.725783 17.191406 25.564011 17.191406 25.394531 L 17.191406 20.580078 C 17.191406 19.124088 17.792121 18.384766 18.744141 18.384766 C 19.646501 18.384766 20.148438 19.088029 20.148438 20.230469 L 20.148438 25.394531 C 20.148438 25.564371 20.205274 25.725603 20.308594 25.845703 C 20.411914 25.965753 20.553089 26.035156 20.699219 26.035156 L 21.753906 26.035156 C 21.899786 26.034856 22.039508 25.965633 22.142578 25.845703 C 22.245698 25.725783 22.302584 25.564071 22.302734 25.394531 L 22.302734 20.054688 C 22.302734 17.628188 21.050984 16.056641 19.146484 16.056641 C 18.010644 16.056641 17.1743 16.581128 16.65625 17.455078 C 16.18838 16.561708 15.420316 16.056641 14.384766 16.056641 z M 46.228516 16.072266 C 43.681646 16.072266 41.945312 18.241031 41.945312 21.050781 C 41.945312 23.860551 43.665338 26.03125 46.392578 26.03125 C 47.682728 26.03125 48.743113 25.525284 49.501953 24.621094 C 49.558473 24.553144 49.601763 24.470629 49.626953 24.380859 C 49.652153 24.291029 49.657694 24.195113 49.646484 24.101562 C 49.635324 24.008013 49.605857 23.920267 49.560547 23.841797 C 49.515237 23.763387 49.456969 23.697881 49.386719 23.650391 L 48.607422 23.126953 C 48.509532 23.062613 48.397026 23.035168 48.285156 23.048828 C 48.173236 23.062428 48.068705 23.116555 47.984375 23.203125 C 47.609385 23.577865 47.068141 23.826172 46.425781 23.826172 C 45.321901 23.826172 44.428706 23.297781 44.134766 22.050781 L 49.787109 22.050781 C 49.921459 22.050601 50.051571 21.992509 50.150391 21.886719 C 50.249251 21.780989 50.309103 21.636119 50.320312 21.480469 C 50.330122 21.342809 50.335938 21.200634 50.335938 21.052734 C 50.335937 18.279504 48.630896 16.072266 46.228516 16.072266 z M 27.205078 16.074219 C 27.121603 16.076988 27.038522 16.083332 26.955078 16.091797 C 25.822728 16.208507 24.777405 16.841306 24.046875 17.853516 C 23.316345 18.865756 22.960394 20.174054 23.058594 21.490234 C 23.067914 21.651264 23.105709 21.808895 23.167969 21.953125 C 23.230179 22.097355 23.316455 22.225108 23.421875 22.330078 C 23.527345 22.435038 23.64905 22.515133 23.78125 22.564453 C 23.9135 22.613753 24.053066 22.631258 24.191406 22.617188 C 24.329706 22.603117 24.465011 22.557642 24.587891 22.482422 C 24.710721 22.407202 24.81808 22.304347 24.90625 22.179688 C 24.99446 22.055027 25.061833 21.910499 25.101562 21.755859 C 25.141392 21.601279 25.153522 21.439737 25.138672 21.279297 C 25.095912 20.711177 25.217105 20.142353 25.484375 19.664062 C 25.751645 19.185773 26.149301 18.824362 26.613281 18.638672 C 27.077201 18.452982 27.580942 18.453042 28.044922 18.638672 C 28.508902 18.824242 28.906508 19.185833 29.173828 19.664062 C 29.441148 20.142292 29.562181 20.711177 29.519531 21.279297 C 29.476831 21.847417 29.27204 22.381628 28.9375 22.798828 C 28.60296 23.216028 28.158438 23.490668 27.673828 23.580078 C 27.189158 23.669488 26.692932 23.569249 26.263672 23.292969 C 26.022782 23.149979 25.743195 23.121291 25.484375 23.212891 C 25.225605 23.304551 25.008383 23.508403 24.876953 23.783203 C 24.745573 24.058073 24.71151 24.381767 24.78125 24.685547 C 24.85099 24.989387 25.01827 25.249839 25.25 25.412109 C 25.83614 25.789569 26.490556 26.002753 27.160156 26.033203 C 27.829756 26.063713 28.495719 25.910891 29.105469 25.587891 C 29.715219 25.264891 30.252445 24.781208 30.671875 24.173828 C 31.091315 23.566438 31.382164 22.851634 31.521484 22.089844 C 31.660854 21.328114 31.645159 20.540259 31.474609 19.787109 C 31.304069 19.033949 30.983072 18.337256 30.539062 17.753906 C 30.095113 17.170556 29.540309 16.716444 28.917969 16.427734 C 28.373378 16.175113 27.789401 16.054832 27.205078 16.074219 z M 46.228516 18.261719 C 47.107276 18.261719 47.984141 18.807666 48.244141 20.166016 L 44.103516 20.166016 C 44.346816 18.958466 45.108406 18.261719 46.228516 18.261719 z M 36.708984 18.386719 C 37.992734 18.386719 38.951172 19.464521 38.951172 21.050781 C 38.951172 22.636451 37.992734 23.710938 36.708984 23.710938 C 35.409514 23.710938 34.451172 22.636981 34.451172 21.050781 C 34.451172 19.464521 35.409514 18.386719 36.708984 18.386719 z "></path>
                    </g>
                  </g>
                </svg>