<svg class="eastendFooterLinkColumns_svgIcon" xmlns="http://www.w3.org/2000/svg" width="24" height="24" viewBox="0 0 24 24">
                                          <path class="eastendFooterLinkColumns_svgIconFill-light" fill-rule="nonzero" d="M13 2.05A10.003 10.003 0 0121.95 11H24v2h-2.05A10.003 10.003 0 0113 21.95V24h-2v-2.05A10.003 10.003 0 012.05 13H0v-2h2.05A10.003 10.003 0 0111 2.05V0h2v2.05zM12 16a4 4 0 110-8 4 4 0 010 8zm0 4a8 8 0 100-16 8 8 0 000 16z"></path>
                                        </svg>