<svg class="eastendFooterSocialIcons_listItemSvg" width="40px" height="40px" viewBox="0 0 40 40" version="1.1" xmlns="http://www.w3.org/2000/svg" xmlns:xlink="http://www.w3.org/1999/xlink">
                      <circle id="Oval-2-Copy-2" class="eastendFooter_fill_hover" cx="20" cy="20" r="20"></circle>
                      <path class="eastendFooterSocialIcons_listItemSvgPath" d="M27.3656846,14.7303293 C28.1998845,14.2311958 28.8399769,13.4385904 29.1415367,12.4969382 C28.3604853,12.9590988 27.4974003,13.2941652 26.5753899,13.4744079 C25.8405546,12.6910456 24.7902946,12.2 23.6279607,12.2 C21.3991912,12.2 19.5909879,14.0093588 19.5909879,16.2392837 C19.5909879,16.5558637 19.6256499,16.8632005 19.694974,17.1589832 C16.3385326,16.9891392 13.3633738,15.3842865 11.3703062,12.9371462 C11.0225303,13.5367995 10.8238013,14.2311958 10.8238013,14.9706528 C10.8238013,16.369844 11.536684,17.607279 12.6204506,18.3317158 C11.9595609,18.3120739 11.3356441,18.1295205 10.7902946,17.8279607 L10.7902946,17.877643 C10.7902946,19.8348931 12.1825534,21.4674754 14.0311958,21.8383593 C13.6926632,21.9331023 13.3356441,21.9804737 12.9670711,21.9804737 C12.7071057,21.9804737 12.4529174,21.9562103 12.2068169,21.9088388 C12.7209705,23.5125361 14.2114385,24.680647 15.9792028,24.7129983 C14.5973426,25.7956095 12.8549971,26.4414789 10.9636049,26.4414789 C10.6377816,26.4414789 10.3154246,26.4229925 10,26.3860196 C11.7874061,27.5310225 13.9110341,28.2 16.1906412,28.2 C23.6198729,28.2 27.6811092,22.0463316 27.6811092,16.7072213 C27.6811092,16.5327556 27.677643,16.3571346 27.6707106,16.1849798 C28.4598498,15.6153668 29.1450029,14.9047949 29.6845754,14.0937031 C28.961294,14.4160601 28.1825534,14.6321202 27.3656846,14.7303293 Z" id="Twitter" fill="#FFFFFF"></path>
                    </svg>