<svg class="eastendFooterLinkColumns_svgIcon" xmlns="http://www.w3.org/2000/svg" width="24" height="24" viewBox="0 0 24 24">
                                          <path class="eastendFooterLinkColumns_svgIconFill-light" d="M9.34926478,14.6507352 C10.6183524,15.9198228 11.9635202,16.7318171 13.2447593,17.2840269 L16.4221165,14.1066697 C16.7225956,13.8061906 17.2097685,13.8061906 17.5102476,14.1066697 L20.7746407,17.3710628 C21.0751198,17.6715419 21.0751198,18.1587148 20.7746407,18.4591939 L19.9585424,19.2752921 C18.4451709,20.7886636 16.324403,21.2121111 13.9738217,20.9074887 C11.5280175,20.5905259 9.09140996,19.7137455 6.62893719,17.3710628 C4.2862545,14.90859 3.40947407,12.4719825 3.09251131,10.0261783 C2.78788892,7.67559701 3.21133638,5.55482909 4.72470787,4.0414576 L5.54080615,3.22535932 C5.84128524,2.92488023 6.3284581,2.92488023 6.62893719,3.22535932 L9.8933303,6.48975243 C10.1938094,6.79023152 10.1938094,7.27740438 9.8933303,7.57788347 L6.71597306,10.7552407 C7.26818295,12.0364798 8.08017716,13.3816476 9.34926478,14.6507352 L9.34926478,14.6507352 Z"></path>
                                        </svg>